<svg xmlns="http://www.w3.org/2000/svg" viewBox="0 0 64 64" width="64" height="64">
  <!-- Square background -->
  <rect width="64" height="64" fill="#f4f4f5" rx="8"/>
  
  <!-- InkAlchemy bottle logo centered and properly scaled -->
  <g transform="translate(12, 8) scale(0.8)">
    <!-- Bottle cap -->
    <rect x="15" y="2" width="20" height="8" rx="4" fill="#d4af37"/>
    <rect x="12" y="8" width="26" height="6" rx="3" fill="#d4af37"/>
    <rect x="18" y="10" width="14" height="2" rx="1" fill="#8b6914"/>
    
    <!-- Bottle neck -->
    <rect x="18" y="14" width="14" height="12" fill="#d4af37"/>
    
    <!-- Bottle body -->
    <path d="M 8 26 Q 8 20 15 20 L 35 20 Q 42 20 42 26 L 42 40 Q 42 50 32 50 L 18 50 Q 8 50 8 40 Z" fill="#d4af37"/>
    
    <!-- Inner bottle outline -->
    <path d="M 12 28 Q 12 24 16 24 L 34 24 Q 38 24 38 28 L 38 42 Q 38 46 34 46 L 16 46 Q 12 46 12 42 Z" fill="#eab308" opacity="0.8"/>
    
    <!-- Liquid/potion inside -->
    <ellipse cx="25" cy="38" rx="14" ry="12" fill="#fbbf24" opacity="0.6"/>
  </g>
</svg>