<svg width="32" height="32" viewBox="0 0 32 32" fill="none" xmlns="http://www.w3.org/2000/svg">
<path d="M19.9485 8.9651C19.342 8.75161 18.9344 8.19253 18.9344 7.57208V4.79072C19.0939 4.722 19.2393 4.6226 19.3701 4.4945C19.6376 4.22697 19.7844 3.86938 19.7844 3.48977C19.7844 2.71187 19.1546 2.07741 18.378 2.07007H13.6139C13.2423 2.07474 12.8947 2.21951 12.6245 2.48704C12.355 2.7539 12.2075 3.11149 12.2075 3.48977C12.2075 4.07086 12.5578 4.57256 13.0575 4.79272V7.57475C13.0575 8.1952 12.6578 8.75161 12.0607 8.96043C7.17651 10.679 3.99686 15.3144 4.14563 20.4975C4.3311 26.8148 9.62496 31.9765 15.9489 31.9999H15.9963C19.1546 31.9999 22.1241 30.7737 24.3617 28.5427C26.6127 26.3031 27.8516 23.3202 27.8516 20.1446C27.8516 15.1296 24.6759 10.6383 19.9485 8.9651ZM13.2903 3.15686C13.3824 3.0668 13.5031 3.01676 13.6279 3.01676H18.378C18.6315 3.0241 18.8377 3.23492 18.8377 3.48977C18.8377 3.61786 18.7876 3.73662 18.7022 3.82401C18.6095 3.91475 18.4894 3.96478 18.364 3.96478H13.6279C13.3684 3.96478 13.1549 3.75063 13.1549 3.48977C13.1549 3.36301 13.2042 3.24426 13.2903 3.15686ZM23.3603 27.5366C21.3902 29.5001 18.7756 30.5795 15.9963 30.5795H15.9536C10.3875 30.5582 5.72745 26.0169 5.56667 20.4555C5.4339 15.8921 8.23194 11.8132 12.5324 10.2994C13.6946 9.89044 14.4792 8.79631 14.4792 7.57475V4.91147H17.514V7.57208C17.514 8.79364 18.302 9.89311 19.4748 10.3041C23.6338 11.7771 26.4305 15.7314 26.4305 20.1446C26.4305 22.9393 25.3391 25.5652 23.3603 27.5366Z" fill="#BF972C"/>
<path d="M25.4648 20.0073C25.4628 19.9272 25.4602 19.8445 25.4555 19.7638C25.4542 19.7444 25.4528 19.7244 25.4522 19.7051C25.4495 19.6463 25.4468 19.5876 25.4415 19.5289C25.4368 19.4535 25.4288 19.3775 25.4228 19.3021C25.4188 19.2607 25.4148 19.2194 25.4095 19.178C25.4048 19.1373 25.4001 19.0959 25.3941 19.0559C25.1099 16.843 24.0632 14.8649 22.5227 13.3998C22.5207 13.3978 22.5187 13.3965 22.5167 13.3945L21.7188 13.9015C19.9602 15.017 17.6872 14.9049 16.0466 13.6193L15.9966 13.5819H15.9959L15.651 13.3097C13.839 11.8914 11.2772 11.9127 9.4992 13.3758C9.49253 13.3831 9.48319 13.3878 9.47585 13.3945C8.07683 14.7228 7.08344 16.4734 6.69916 18.4395C6.68915 18.4902 6.67981 18.5415 6.67047 18.5922C6.64379 18.7457 6.61977 18.9005 6.59975 19.0559C6.59508 19.0959 6.59041 19.1373 6.58508 19.178C6.57974 19.2194 6.57507 19.2607 6.5704 19.3021C6.56373 19.3775 6.55639 19.4535 6.55172 19.5289C6.54705 19.607 6.54238 19.6857 6.53771 19.7638C6.53304 19.8445 6.53104 19.9272 6.52837 20.0073C6.52637 20.0927 6.52637 20.1761 6.52637 20.2615C6.52637 20.3769 6.52837 20.491 6.53304 20.6084V20.6471C6.53571 20.6944 6.53771 20.7398 6.54038 20.7865C6.54505 20.8552 6.54705 20.9213 6.55439 20.99C6.55572 21.01 6.55706 21.03 6.55839 21.05C6.56239 21.1101 6.56773 21.1688 6.57507 21.2288C6.57841 21.2629 6.58241 21.2976 6.58641 21.3316C6.59041 21.3656 6.59508 21.3996 6.59975 21.433C6.60643 21.497 6.6151 21.5617 6.62377 21.6258C6.63311 21.6905 6.64245 21.7552 6.65313 21.8193C6.65846 21.8533 6.66447 21.888 6.67114 21.922C6.67114 21.9227 6.67114 21.924 6.67181 21.9247C6.67448 21.9394 6.67714 21.9534 6.67981 21.968C6.68181 21.9774 6.68315 21.9867 6.68515 21.9961C6.68648 22.0054 6.68915 22.0147 6.69049 22.0241C6.69716 22.0608 6.7045 22.0975 6.71184 22.1342C6.72251 22.1895 6.73452 22.2442 6.74653 22.2989C6.77121 22.4084 6.79723 22.5171 6.82458 22.6265C6.83726 22.6772 6.8506 22.7279 6.86461 22.778C6.87862 22.8287 6.89263 22.8787 6.90731 22.9294C6.96402 23.1235 7.02807 23.313 7.09678 23.5018C7.11213 23.5432 7.12747 23.5839 7.14282 23.6246C7.17417 23.7066 7.2062 23.788 7.23955 23.8694C7.25623 23.9095 7.27291 23.9502 7.29026 23.9902C7.29026 23.9902 7.29026 23.9908 7.29026 23.9922C7.32228 24.0656 7.35497 24.1383 7.38833 24.2103C7.40434 24.2464 7.42169 24.2824 7.43837 24.3178C7.45504 24.3531 7.47239 24.3885 7.48907 24.4232C7.50508 24.4552 7.52109 24.4872 7.5371 24.5192C7.55378 24.5513 7.56979 24.5833 7.58581 24.6153C7.60182 24.646 7.61783 24.6767 7.63451 24.7074C7.65119 24.7381 7.6672 24.7687 7.68388 24.7988C7.70389 24.8355 7.72391 24.8715 7.74459 24.9075C7.75593 24.9282 7.76794 24.9482 7.77928 24.9689C8.77067 26.6962 10.2931 28.0838 12.1204 28.9018C12.1385 28.9104 12.1571 28.9191 12.1758 28.9271C12.2379 28.9531 12.2999 28.9805 12.362 29.0072C12.4353 29.0379 12.5087 29.0692 12.5841 29.0972C12.6668 29.1286 12.7502 29.1586 12.833 29.1893C13.0104 29.2507 13.1906 29.3101 13.3734 29.3628C13.4421 29.3814 13.5121 29.4001 13.5808 29.4195C13.6529 29.4382 13.7229 29.4568 13.795 29.4735C13.8664 29.4902 13.9371 29.5062 14.0078 29.5215C14.0792 29.5369 14.1506 29.5516 14.2226 29.5662C14.2934 29.5803 14.3668 29.5923 14.4401 29.6036C14.5122 29.6156 14.5856 29.627 14.659 29.637C14.7324 29.649 14.8057 29.6583 14.8791 29.6657C15.0259 29.6843 15.1747 29.699 15.3241 29.7084C15.3401 29.7104 15.3588 29.7104 15.3762 29.7104C15.4522 29.7177 15.5276 29.7204 15.601 29.725C15.8665 29.7344 16.1307 29.7344 16.3916 29.725C16.4649 29.7204 16.541 29.7177 16.6164 29.7104C16.7818 29.7003 16.948 29.6863 17.1134 29.6657C17.1868 29.6583 17.2602 29.649 17.3336 29.637C17.407 29.627 17.4804 29.6156 17.5517 29.6036C17.6251 29.5923 17.6985 29.5803 17.7692 29.5662C17.914 29.5376 18.0568 29.5069 18.1989 29.4735C18.2689 29.4568 18.341 29.4382 18.411 29.4195C18.4798 29.4001 18.5505 29.3814 18.6192 29.3628C18.802 29.3101 18.9814 29.2534 19.1596 29.1893C19.2423 29.1613 19.325 29.1306 19.4078 29.0972C19.4811 29.0692 19.5579 29.0379 19.6313 29.0072C19.6933 28.9818 19.7553 28.9545 19.8174 28.9271C21.6647 28.1025 23.2065 26.7062 24.2133 24.9689C24.2253 24.9482 24.2366 24.9282 24.248 24.9075C24.2686 24.8715 24.2893 24.8355 24.3093 24.7988C24.342 24.7381 24.3747 24.6767 24.4067 24.6153C24.4234 24.5833 24.4394 24.5513 24.4561 24.5192C24.4728 24.4872 24.4888 24.4552 24.5041 24.4232C24.5568 24.3164 24.6082 24.2103 24.6556 24.1016C24.6716 24.0656 24.6869 24.0289 24.7023 23.9922V23.9902C24.771 23.8294 24.835 23.6659 24.8964 23.5018C24.9305 23.4084 24.9638 23.3144 24.9958 23.219C25.0279 23.1229 25.0579 23.0268 25.0866 22.9294C25.1146 22.828 25.1426 22.7286 25.1693 22.6265C25.1833 22.5718 25.1966 22.5178 25.21 22.4631C25.236 22.3537 25.26 22.2442 25.2814 22.1342C25.2927 22.0795 25.3034 22.0234 25.3134 21.968C25.3227 21.9187 25.3321 21.8686 25.3394 21.8193C25.3494 21.7552 25.3594 21.6912 25.3688 21.6271C25.3781 21.5624 25.3868 21.4977 25.3941 21.433C25.3988 21.3996 25.4028 21.3656 25.4068 21.3316C25.4108 21.2976 25.4141 21.2629 25.4181 21.2288C25.4275 21.1488 25.4342 21.0707 25.4388 20.99C25.4462 20.9213 25.4482 20.8552 25.4528 20.7865C25.4555 20.7271 25.4582 20.6678 25.4602 20.6084C25.4648 20.491 25.4675 20.3769 25.4675 20.2615C25.4675 20.1761 25.4675 20.0927 25.4648 20.0073ZM12.1945 25.506L13.5802 23.239H14.1813L13.0958 24.9856H18.8974L15.9966 19.9612L14.5956 22.2542H13.9945L15.9966 18.9205L19.7987 25.506H12.1945ZM18.6032 23.0068L18.3023 22.4864H18.8974L15.9966 17.4621L13.0958 22.4864H17.2068L17.507 23.0068H12.1945L15.9966 16.4213L19.7987 23.0068H18.6032Z" fill="#A37E26"/>
<path d="M25.4645 20.0073C25.4625 19.9272 25.4599 19.8445 25.4552 19.7638C25.4539 19.7444 25.4525 19.7244 25.4519 19.7051C25.4485 19.6463 25.4452 19.5876 25.4405 19.5289C25.4358 19.4535 25.4285 19.3775 25.4218 19.3021C25.4185 19.2607 25.4138 19.2194 25.4092 19.178C25.4045 19.1373 25.3998 19.0959 25.3938 19.0559C25.1396 16.8136 24.1576 14.7635 22.5224 13.3998C22.5204 13.3978 22.5184 13.3965 22.5164 13.3945C22.5097 13.3878 22.4997 13.3831 22.493 13.3758C20.7151 11.9127 18.1532 11.8914 16.3412 13.3097L15.9963 13.5819H15.9956L15.9463 13.6193C14.3057 14.9049 12.0327 15.017 10.2735 13.9015L9.47554 13.3945C8.07652 14.7228 7.08313 16.4734 6.69885 18.4395C6.68884 18.4902 6.6795 18.5415 6.67016 18.5922C6.64281 18.7457 6.61879 18.9005 6.59878 19.0559C6.59411 19.0959 6.58944 19.1373 6.58477 19.178C6.57943 19.2194 6.57476 19.2607 6.57009 19.3021C6.56342 19.3775 6.55541 19.4535 6.55074 19.5289C6.54607 19.607 6.5414 19.6857 6.53673 19.7638C6.53206 19.8445 6.53006 19.9272 6.52739 20.0073C6.52539 20.0927 6.52539 20.1761 6.52539 20.2615C6.52539 20.3769 6.52739 20.491 6.53206 20.6084V20.6471C6.53473 20.6944 6.53673 20.7398 6.5394 20.7865C6.54407 20.8552 6.54607 20.9213 6.55408 20.99C6.55541 21.01 6.55675 21.03 6.55808 21.05C6.56208 21.1101 6.56742 21.1688 6.57476 21.2288C6.5781 21.2629 6.5821 21.2975 6.5861 21.3316C6.5901 21.3656 6.59411 21.3996 6.59878 21.433C6.60612 21.497 6.61412 21.5617 6.62346 21.6258C6.6328 21.6905 6.64214 21.7552 6.65282 21.8193C6.65815 21.8533 6.66416 21.888 6.67083 21.922C6.67083 21.9227 6.67083 21.924 6.6715 21.9247C6.6735 21.9394 6.67617 21.9534 6.67884 21.968C6.68084 21.9774 6.68217 21.9867 6.68484 21.9961C6.68617 22.0054 6.68884 22.0147 6.69018 22.0241C6.69685 22.0608 6.70419 22.0975 6.71153 22.1342C6.7222 22.1895 6.73421 22.2442 6.74622 22.2989C6.77024 22.4084 6.79692 22.5171 6.82361 22.6265C6.83695 22.6772 6.85029 22.7279 6.8643 22.778C6.87831 22.8287 6.89232 22.8787 6.907 22.9294C6.96304 23.1235 7.02709 23.313 7.09581 23.5018C7.11115 23.5432 7.1265 23.5839 7.14251 23.6246C7.17386 23.7066 7.20589 23.788 7.23924 23.8694C7.25592 23.9095 7.2726 23.9502 7.28995 23.9902C7.28995 23.9902 7.28995 23.9908 7.28995 23.9922C7.32197 24.0656 7.35466 24.1383 7.38802 24.2103C7.40403 24.2464 7.42138 24.2824 7.43806 24.3178C7.45473 24.3531 7.47141 24.3885 7.48809 24.4232C7.5041 24.4552 7.52012 24.4872 7.53679 24.5192C7.55347 24.5513 7.56949 24.5833 7.5855 24.6153C7.60151 24.646 7.61752 24.6767 7.6342 24.7074C7.65021 24.7381 7.66689 24.7687 7.6829 24.7988C7.70292 24.8355 7.7236 24.8715 7.74428 24.9075C7.75562 24.9282 7.76763 24.9482 7.77897 24.9689C8.77703 26.6888 10.2975 28.0745 12.1201 28.9018C12.1381 28.9104 12.1568 28.9191 12.1755 28.9271C12.2376 28.9531 12.2996 28.9805 12.3616 29.0072C12.435 29.0379 12.5084 29.0692 12.5838 29.0972C12.6665 29.1286 12.7499 29.1586 12.8327 29.1893C13.0101 29.2507 13.1902 29.3101 13.373 29.3628C13.4418 29.3814 13.5118 29.4001 13.5805 29.4195C13.6526 29.4382 13.7226 29.4568 13.7947 29.4735C13.8661 29.4902 13.9368 29.5062 14.0075 29.5215C14.0789 29.5369 14.1503 29.5516 14.2223 29.5662C14.2931 29.5803 14.3664 29.5923 14.4398 29.6036C14.5119 29.6156 14.5853 29.627 14.6587 29.637C14.732 29.649 14.8054 29.6583 14.8788 29.6657C15.0256 29.6843 15.1744 29.699 15.3238 29.7084C15.3398 29.7104 15.3585 29.7104 15.3758 29.7104C15.4519 29.7177 15.5273 29.7204 15.6007 29.725C15.8662 29.7344 16.1304 29.7344 16.3913 29.725C16.4646 29.7204 16.5407 29.7177 16.6161 29.7104C16.7815 29.7003 16.9477 29.6863 17.1131 29.6657C17.1865 29.6583 17.2599 29.649 17.3333 29.637C17.4067 29.627 17.48 29.6156 17.5514 29.6036C17.6248 29.5923 17.6982 29.5803 17.7689 29.5662C17.9137 29.5376 18.0565 29.5069 18.1986 29.4735C18.2686 29.4568 18.3407 29.4382 18.4107 29.4195C18.4794 29.4001 18.5502 29.3814 18.6189 29.3628C18.8017 29.3101 18.9811 29.2534 19.1593 29.1893C19.242 29.1613 19.3247 29.1306 19.4074 29.0972C19.4808 29.0692 19.5576 29.0379 19.6309 29.0072C19.693 28.9818 19.755 28.9545 19.8171 28.9271C21.6684 28.1119 23.2116 26.7135 24.213 24.9689C24.225 24.9482 24.2363 24.9282 24.2476 24.9075C24.2683 24.8715 24.2883 24.8355 24.3084 24.7988C24.3417 24.7381 24.3744 24.6767 24.4064 24.6153C24.4231 24.5833 24.4391 24.5513 24.4558 24.5192C24.4718 24.4872 24.4878 24.4552 24.5032 24.4232C24.5565 24.3164 24.6072 24.2103 24.6553 24.1016C24.6713 24.0656 24.6866 24.0289 24.702 23.9922V23.9902C24.7727 23.8294 24.8367 23.6686 24.8961 23.5018C24.9301 23.4084 24.9635 23.3144 24.9955 23.219C25.0269 23.1229 25.0569 23.0268 25.0863 22.9294C25.1143 22.828 25.1423 22.7286 25.169 22.6265C25.183 22.5718 25.1963 22.5178 25.2097 22.4631C25.235 22.3537 25.259 22.2442 25.2811 22.1342C25.2917 22.0795 25.3024 22.0234 25.3124 21.968C25.3224 21.9187 25.3318 21.8686 25.3391 21.8193C25.3491 21.7552 25.3591 21.6912 25.3685 21.6271C25.3778 21.5624 25.3865 21.4977 25.3938 21.433C25.3985 21.3996 25.4025 21.3656 25.4065 21.3316C25.4098 21.2975 25.4132 21.2629 25.4172 21.2288C25.4265 21.1488 25.4332 21.0707 25.4378 20.99C25.4452 20.9213 25.4472 20.8552 25.4519 20.7865C25.4552 20.7271 25.4579 20.6678 25.4599 20.6084C25.4645 20.491 25.4672 20.3769 25.4672 20.2615C25.4672 20.1761 25.4672 20.0927 25.4645 20.0073Z" fill="#BF972C"/>
<path d="M18.3782 2.07018H13.6147V0.947357C13.6147 0.424309 14.0391 0 14.5621 0H17.4315C17.9546 0 18.3789 0.424309 18.3789 0.947357V2.07018H18.3782Z" fill="#A37E26"/>
</svg>
