<svg width="1500" height="1500" viewBox="0 0 1500 1500" fill="none" xmlns="http://www.w3.org/2000/svg">
<path d="M935.093 420.244C906.666 410.236 887.558 384.03 887.558 354.946V224.57C895.032 221.349 901.85 216.689 907.979 210.685C920.52 198.144 927.4 181.382 927.4 163.588C927.4 127.124 897.878 97.3833 861.477 97.0393H638.157C620.738 97.2582 604.445 104.044 591.78 116.585C579.146 129.094 572.234 145.856 572.234 163.588C572.234 190.826 588.653 214.344 612.076 224.664V355.071C612.076 384.155 593.343 410.236 565.354 420.025C336.406 500.584 187.36 717.867 194.334 960.825C203.028 1256.95 451.177 1498.91 747.612 1500H749.833C897.878 1500 1037.07 1442.52 1141.96 1337.94C1247.48 1232.96 1305.55 1093.14 1305.55 944.282C1305.55 709.205 1156.69 498.676 935.093 420.244ZM622.99 147.983C627.306 143.761 632.966 141.415 638.814 141.415H861.477C873.36 141.759 883.023 151.642 883.023 163.588C883.023 169.592 880.678 175.159 876.675 179.256C872.328 183.509 866.699 185.854 860.82 185.854H638.814C626.649 185.854 616.642 175.816 616.642 163.588C616.642 157.646 618.956 152.079 622.99 147.983ZM1095.02 1290.78C1002.67 1382.82 880.115 1433.42 749.833 1433.42H747.831C486.922 1432.42 268.482 1219.55 260.945 958.855C254.722 744.949 385.88 553.747 587.464 482.789C641.941 463.619 678.718 412.332 678.718 355.071V230.23H820.978V354.946C820.978 412.207 857.911 463.744 912.889 483.008C1107.84 552.059 1238.94 737.413 1238.94 944.282C1238.94 1075.28 1187.78 1198.37 1095.02 1290.78Z" fill="#BF972C"/>
<path d="M1193.66 937.841C1193.56 934.088 1193.44 930.21 1193.22 926.426C1193.15 925.519 1193.09 924.581 1193.06 923.674C1192.94 920.922 1192.81 918.17 1192.56 915.418C1192.34 911.884 1191.97 908.319 1191.68 904.785C1191.5 902.846 1191.31 900.907 1191.06 898.968C1190.84 897.061 1190.62 895.122 1190.34 893.246C1177.02 789.514 1127.95 696.79 1055.74 628.115C1055.65 628.021 1055.55 627.958 1055.46 627.865L1018.06 651.632C935.623 703.92 829.077 698.666 752.177 638.403L749.832 636.652H749.8L733.632 623.893C648.695 557.407 528.608 558.408 445.266 626.989C444.953 627.333 444.515 627.552 444.171 627.865C378.592 690.129 332.027 772.189 314.014 864.35C313.545 866.726 313.107 869.134 312.669 871.511C311.418 878.704 310.292 885.959 309.354 893.246C309.135 895.122 308.916 897.061 308.666 898.968C308.416 900.907 308.197 902.846 307.978 904.785C307.665 908.319 307.321 911.884 307.102 915.418C306.884 919.077 306.665 922.767 306.446 926.426C306.227 930.21 306.133 934.088 306.008 937.841C305.914 941.844 305.914 945.753 305.914 949.756C305.914 955.166 306.008 960.513 306.227 966.017V967.831C306.352 970.052 306.446 972.178 306.571 974.367C306.79 977.588 306.884 980.684 307.228 983.905C307.29 984.844 307.353 985.782 307.415 986.72C307.603 989.535 307.853 992.287 308.197 995.101C308.353 996.696 308.541 998.322 308.729 999.917C308.916 1001.51 309.135 1003.11 309.354 1004.67C309.667 1007.67 310.073 1010.71 310.48 1013.71C310.918 1016.74 311.356 1019.78 311.856 1022.78C312.106 1024.37 312.388 1026 312.7 1027.59C312.7 1027.62 312.7 1027.69 312.732 1027.72C312.857 1028.41 312.982 1029.06 313.107 1029.75C313.201 1030.19 313.263 1030.63 313.357 1031.06C313.42 1031.5 313.545 1031.94 313.607 1032.38C313.92 1034.1 314.264 1035.82 314.608 1037.54C315.108 1040.13 315.671 1042.7 316.234 1045.26C317.391 1050.39 318.611 1055.49 319.893 1060.62C320.487 1062.99 321.113 1065.37 321.769 1067.72C322.426 1070.09 323.083 1072.44 323.771 1074.82C326.429 1083.92 329.431 1092.8 332.652 1101.65C333.372 1103.59 334.091 1105.49 334.81 1107.4C336.28 1111.25 337.781 1115.06 339.345 1118.88C340.127 1120.76 340.908 1122.66 341.721 1124.54C341.721 1124.54 341.721 1124.57 341.721 1124.63C343.223 1128.07 344.755 1131.48 346.319 1134.86C347.069 1136.55 347.882 1138.24 348.664 1139.89C349.446 1141.55 350.259 1143.21 351.041 1144.84C351.791 1146.34 352.542 1147.84 353.292 1149.34C354.074 1150.84 354.825 1152.34 355.575 1153.84C356.326 1155.28 357.076 1156.72 357.858 1158.16C358.64 1159.6 359.391 1161.03 360.172 1162.44C361.111 1164.16 362.049 1165.85 363.018 1167.54C363.55 1168.51 364.113 1169.45 364.644 1170.42C411.116 1251.38 482.48 1316.43 568.137 1354.77C568.981 1355.18 569.857 1355.58 570.732 1355.96C573.641 1357.18 576.549 1358.46 579.457 1359.71C582.897 1361.15 586.337 1362.62 589.871 1363.93C593.749 1365.4 597.658 1366.81 601.536 1368.25C609.854 1371.13 618.298 1373.91 626.867 1376.38C630.088 1377.25 633.372 1378.13 636.593 1379.04C639.97 1379.91 643.254 1380.79 646.631 1381.57C649.977 1382.35 653.292 1383.1 656.607 1383.82C659.953 1384.54 663.3 1385.23 666.677 1385.92C669.992 1386.57 673.432 1387.14 676.872 1387.67C680.25 1388.23 683.69 1388.76 687.13 1389.23C690.57 1389.8 694.01 1390.23 697.45 1390.58C704.33 1391.45 711.303 1392.14 718.309 1392.58C719.059 1392.67 719.935 1392.67 720.748 1392.67C724.313 1393.02 727.847 1393.14 731.287 1393.36C743.733 1393.8 756.117 1393.8 768.345 1393.36C771.785 1393.14 775.35 1393.02 778.884 1392.67C786.64 1392.2 794.427 1391.55 802.182 1390.58C805.622 1390.23 809.062 1389.8 812.502 1389.23C815.942 1388.76 819.382 1388.23 822.728 1387.67C826.168 1387.14 829.608 1386.57 832.923 1385.92C839.71 1384.57 846.402 1383.13 853.063 1381.57C856.347 1380.79 859.724 1379.91 863.008 1379.04C866.229 1378.13 869.544 1377.25 872.765 1376.38C881.334 1373.91 889.746 1371.25 898.096 1368.25C901.974 1366.93 905.852 1365.5 909.729 1363.93C913.169 1362.62 916.766 1361.15 920.206 1359.71C923.114 1358.52 926.022 1357.24 928.931 1355.96C1015.53 1317.3 1087.8 1251.85 1134.99 1170.42C1135.55 1169.45 1136.08 1168.51 1136.61 1167.54C1137.58 1165.85 1138.55 1164.16 1139.49 1162.44C1141.02 1159.6 1142.56 1156.72 1144.06 1153.84C1144.84 1152.34 1145.59 1150.84 1146.37 1149.34C1147.15 1147.84 1147.9 1146.34 1148.62 1144.84C1151.09 1139.83 1153.5 1134.86 1155.72 1129.76C1156.47 1128.07 1157.19 1126.35 1157.91 1124.63V1124.54C1161.13 1117 1164.13 1109.34 1167.01 1101.65C1168.61 1097.27 1170.17 1092.86 1171.67 1088.39C1173.17 1083.88 1174.58 1079.38 1175.92 1074.82C1177.24 1070.06 1178.55 1065.4 1179.8 1060.62C1180.46 1058.05 1181.08 1055.52 1181.71 1052.96C1182.93 1047.83 1184.05 1042.7 1185.06 1037.54C1185.59 1034.97 1186.09 1032.35 1186.56 1029.75C1186.99 1027.44 1187.43 1025.09 1187.78 1022.78C1188.24 1019.78 1188.71 1016.77 1189.15 1013.77C1189.59 1010.74 1190 1007.7 1190.34 1004.67C1190.56 1003.11 1190.75 1001.51 1190.93 999.917C1191.12 998.322 1191.28 996.696 1191.47 995.101C1191.9 991.348 1192.22 987.689 1192.44 983.905C1192.78 980.684 1192.87 977.588 1193.09 974.367C1193.22 971.584 1193.34 968.801 1193.44 966.017C1193.66 960.513 1193.78 955.166 1193.78 949.756C1193.78 945.753 1193.78 941.844 1193.66 937.841ZM571.608 1195.59L636.561 1089.33H664.738L613.857 1171.2H885.806L749.832 935.683L684.159 1043.17H655.982L749.832 886.897L928.055 1195.59H571.608ZM872.014 1078.44L857.91 1054.05H885.806L749.832 818.535L613.857 1054.05H806.56L820.633 1078.44H571.608L749.832 769.749L928.055 1078.44H872.014Z" fill="#A37E26"/>
<path d="M1193.66 937.841C1193.56 934.088 1193.44 930.21 1193.22 926.426C1193.16 925.519 1193.09 924.581 1193.06 923.674C1192.9 920.922 1192.75 918.17 1192.53 915.418C1192.31 911.884 1191.97 908.319 1191.65 904.785C1191.5 902.846 1191.28 900.907 1191.06 898.968C1190.84 897.061 1190.62 895.122 1190.34 893.246C1178.43 788.138 1132.39 692.036 1055.74 628.115C1055.65 628.021 1055.55 627.958 1055.46 627.865C1055.15 627.552 1054.68 627.333 1054.37 626.989C971.024 558.408 850.937 557.407 766 623.893L749.832 636.652H749.801L747.487 638.403C670.587 698.666 564.04 703.92 481.574 651.632L444.172 627.865C378.593 690.129 332.027 772.189 314.014 864.35C313.545 866.726 313.107 869.134 312.669 871.511C311.387 878.704 310.261 885.959 309.323 893.246C309.104 895.122 308.885 897.061 308.667 898.968C308.416 900.907 308.197 902.846 307.979 904.785C307.666 908.319 307.291 911.884 307.072 915.418C306.853 919.077 306.634 922.767 306.415 926.426C306.196 930.21 306.102 934.088 305.977 937.841C305.883 941.844 305.883 945.753 305.883 949.756C305.883 955.166 305.977 960.513 306.196 966.017V967.831C306.321 970.052 306.415 972.178 306.54 974.367C306.759 977.588 306.853 980.684 307.228 983.905C307.291 984.844 307.353 985.782 307.416 986.72C307.603 989.535 307.853 992.287 308.197 995.101C308.354 996.696 308.541 998.322 308.729 999.917C308.917 1001.51 309.104 1003.11 309.323 1004.67C309.667 1007.67 310.043 1010.71 310.48 1013.71C310.918 1016.74 311.356 1019.78 311.856 1022.78C312.107 1024.37 312.388 1026 312.701 1027.59C312.701 1027.62 312.701 1027.69 312.732 1027.72C312.826 1028.41 312.951 1029.06 313.076 1029.75C313.17 1030.19 313.232 1030.63 313.357 1031.06C313.42 1031.5 313.545 1031.94 313.608 1032.38C313.92 1034.1 314.264 1035.82 314.608 1037.54C315.109 1040.13 315.672 1042.7 316.235 1045.26C317.36 1050.39 318.611 1055.49 319.862 1060.62C320.488 1062.99 321.113 1065.37 321.77 1067.72C322.427 1070.09 323.083 1072.44 323.771 1074.82C326.398 1083.92 329.4 1092.8 332.622 1101.65C333.341 1103.59 334.06 1105.49 334.811 1107.4C336.28 1111.25 337.782 1115.06 339.345 1118.88C340.127 1120.76 340.909 1122.66 341.722 1124.54C341.722 1124.54 341.722 1124.57 341.722 1124.63C343.223 1128.07 344.755 1131.48 346.319 1134.86C347.07 1136.55 347.883 1138.24 348.664 1139.89C349.446 1141.55 350.228 1143.21 351.01 1144.84C351.76 1146.34 352.511 1147.84 353.293 1149.34C354.075 1150.84 354.825 1152.34 355.576 1153.84C356.326 1155.28 357.077 1156.72 357.859 1158.16C358.609 1159.6 359.391 1161.03 360.142 1162.44C361.08 1164.16 362.049 1165.85 363.019 1167.54C363.55 1168.51 364.113 1169.45 364.645 1170.42C411.429 1251.04 482.7 1315.99 568.137 1354.77C568.981 1355.18 569.857 1355.58 570.733 1355.96C573.641 1357.18 576.549 1358.46 579.458 1359.71C582.898 1361.15 586.338 1362.62 589.872 1363.93C593.749 1365.4 597.658 1366.81 601.536 1368.25C609.855 1371.13 618.299 1373.91 626.867 1376.38C630.088 1377.25 633.372 1378.13 636.593 1379.04C639.971 1379.91 643.254 1380.79 646.632 1381.57C649.978 1382.35 653.293 1383.1 656.608 1383.82C659.954 1384.54 663.3 1385.23 666.678 1385.92C669.992 1386.57 673.433 1387.14 676.873 1387.67C680.25 1388.23 683.69 1388.76 687.13 1389.23C690.57 1389.8 694.01 1390.23 697.45 1390.58C704.33 1391.45 711.304 1392.14 718.309 1392.58C719.06 1392.67 719.935 1392.67 720.748 1392.67C724.313 1393.02 727.847 1393.14 731.287 1393.36C743.734 1393.8 756.118 1393.8 768.345 1393.36C771.785 1393.14 775.351 1393.02 778.884 1392.67C786.64 1392.2 794.427 1391.55 802.183 1390.58C805.623 1390.23 809.063 1389.8 812.503 1389.23C815.943 1388.76 819.383 1388.23 822.729 1387.67C826.169 1387.14 829.609 1386.57 832.924 1385.92C839.71 1384.57 846.402 1383.13 853.063 1381.57C856.347 1380.79 859.725 1379.91 863.008 1379.04C866.229 1378.13 869.544 1377.25 872.765 1376.38C881.334 1373.91 889.746 1371.25 898.096 1368.25C901.974 1366.93 905.852 1365.5 909.73 1363.93C913.17 1362.62 916.766 1361.15 920.206 1359.71C923.115 1358.52 926.023 1357.24 928.931 1355.96C1015.71 1317.74 1088.05 1252.19 1134.99 1170.42C1135.55 1169.45 1136.08 1168.51 1136.61 1167.54C1137.58 1165.85 1138.52 1164.16 1139.46 1162.44C1141.02 1159.6 1142.56 1156.72 1144.06 1153.84C1144.84 1152.34 1145.59 1150.84 1146.37 1149.34C1147.12 1147.84 1147.87 1146.34 1148.59 1144.84C1151.09 1139.83 1153.47 1134.86 1155.72 1129.76C1156.47 1128.07 1157.19 1126.35 1157.91 1124.63V1124.54C1161.23 1117 1164.23 1109.47 1167.01 1101.65C1168.61 1097.27 1170.17 1092.86 1171.67 1088.39C1173.14 1083.88 1174.55 1079.38 1175.92 1074.82C1177.24 1070.06 1178.55 1065.4 1179.8 1060.62C1180.46 1058.05 1181.08 1055.52 1181.71 1052.96C1182.9 1047.83 1184.02 1042.7 1185.06 1037.54C1185.56 1034.97 1186.06 1032.35 1186.53 1029.75C1186.99 1027.44 1187.43 1025.09 1187.78 1022.78C1188.25 1019.78 1188.71 1016.77 1189.15 1013.77C1189.59 1010.74 1190 1007.7 1190.34 1004.67C1190.56 1003.11 1190.75 1001.51 1190.93 999.917C1191.09 998.322 1191.25 996.696 1191.44 995.101C1191.87 991.348 1192.19 987.689 1192.4 983.905C1192.75 980.684 1192.84 977.588 1193.06 974.367C1193.22 971.584 1193.34 968.801 1193.44 966.017C1193.66 960.513 1193.78 955.166 1193.78 949.756C1193.78 945.753 1193.78 941.844 1193.66 937.841Z" fill="#BF972C"/>
<path d="M861.477 97.0395H638.189V44.4074C638.189 19.8895 658.079 0 682.596 0H817.101C841.619 0 861.508 19.8895 861.508 44.4074V97.0395H861.477Z" fill="#A37E26"/>
</svg>
